<svg width="84" height="85" viewBox="0 0 84 85" fill="none" xmlns="http://www.w3.org/2000/svg">
<rect x="7.82422" y="7" width="68.3516" height="71" stroke="#EB9D1F" stroke-width="14"/>
<path d="M40.88 44.8123C39.1067 44.8123 37.716 44.5323 36.708 43.9723C35.7 43.431 35.196 42.647 35.196 41.6203C35.196 40.743 35.5227 40.071 36.176 39.6043C36.848 39.119 37.5947 38.8763 38.416 38.8763C38.9573 38.8763 39.536 39.063 40.152 39.4363C40.768 39.8097 41.2813 40.3883 41.692 41.1723C42.6813 41.023 43.456 40.603 44.016 39.9123C44.5947 39.203 44.884 38.4563 44.884 37.6723C44.884 37.1123 44.744 36.5803 44.464 36.0763C44.2027 35.5723 43.7733 35.1617 43.176 34.8443C42.5787 34.5083 41.804 34.3403 40.852 34.3403C40.5533 34.3403 40.208 34.3683 39.816 34.4243C39.424 34.4617 39.004 34.527 38.556 34.6203C38.3133 34.6017 38.1173 34.5363 37.968 34.4243C37.8187 34.2937 37.744 34.1443 37.744 33.9763L38.78 25.6883C38.0893 24.9043 37.744 24.0643 37.744 23.1683C37.744 22.5523 37.9587 22.011 38.388 21.5443C38.8173 21.0777 39.4427 20.8443 40.264 20.8443C40.8427 20.8443 41.3933 21.003 41.916 21.3203C42.4573 21.619 42.9333 22.1137 43.344 22.8043C43.9787 22.8043 44.7627 22.7297 45.696 22.5803C46.648 22.431 47.6467 22.2257 48.692 21.9643C49.7373 21.6843 50.7173 21.3763 51.632 21.0403C51.7067 21.395 51.7533 21.731 51.772 22.0483C51.7907 22.3657 51.8 22.6363 51.8 22.8603C51.8 24.3723 51.3893 25.5577 50.568 26.4163C49.7467 27.2563 48.3747 27.6763 46.452 27.6763C46.3773 27.6763 46.2467 27.6763 46.06 27.6763C45.892 27.6577 45.6027 27.639 45.192 27.6203C44.7813 27.583 44.1933 27.5457 43.428 27.5083L43.12 30.7003C44.128 30.7563 45.1173 30.915 46.088 31.1763C47.0773 31.4377 47.9733 31.8297 48.776 32.3523C49.5973 32.875 50.2507 33.547 50.736 34.3683C51.2213 35.171 51.464 36.1323 51.464 37.2523C51.464 38.6337 51.0253 39.8937 50.148 41.0323C49.2707 42.1897 48.0387 43.1043 46.452 43.7763C44.8653 44.467 43.008 44.8123 40.88 44.8123Z" fill="#EB9D1F"/>
<line x1="23.5229" y1="54.9541" x2="58.5986" y2="54.9541" stroke="#EB9D1F" stroke-width="5"/>
<line x1="23.5229" y1="62.8237" x2="58.5986" y2="62.8237" stroke="#EB9D1F" stroke-width="5"/>
</svg>
