<svg width="109" height="94" viewBox="0 0 109 94" fill="none" xmlns="http://www.w3.org/2000/svg">
<path d="M0 66.4072C0 65.3027 0.895431 64.4072 2 64.4072H8.73485C9.83942 64.4072 10.7348 65.3027 10.7348 66.4072V93.9998H0V66.4072Z" fill="#EB9D1F"/>
<path d="M48.7197 2.87061C48.7197 1.76604 49.6152 0.870605 50.7197 0.870605H57.4546C58.5591 0.870605 59.4546 1.76604 59.4546 2.87061V68.5002C59.4546 69.6048 58.5591 70.5002 57.4546 70.5002H50.7197C49.6152 70.5002 48.7197 69.6048 48.7197 68.5002V2.87061Z" fill="#EB9D1F"/>
<path d="M50.5062 7.41132C49.9756 6.44256 50.3103 5.19174 51.2539 4.61752L56.2793 1.55937C57.6947 0.698054 59.4873 1.17782 60.2833 2.63096L74.3964 28.3962C74.927 29.365 74.5923 30.6158 73.6487 31.19L67.7691 34.768C66.8255 35.3423 65.6304 35.0224 65.0997 34.0537L50.5062 7.41132Z" fill="#EB9D1F"/>
<path d="M57.8815 7.41132C58.4121 6.44256 58.0774 5.19174 57.1338 4.61752L52.1084 1.55937C50.693 0.698054 48.9004 1.17782 48.1044 2.63096L33.9913 28.3962C33.4607 29.365 33.7954 30.6158 34.739 31.19L40.6186 34.768C41.5622 35.3423 42.7573 35.0224 43.2879 34.0537L57.8815 7.41132Z" fill="#EB9D1F"/>
<path d="M98.2651 66.4072C98.2651 65.3027 99.1606 64.4072 100.265 64.4072H107C108.105 64.4072 109 65.3027 109 66.4072V93.9998H98.2651V66.4072Z" fill="#EB9D1F"/>
<path d="M0 81.8149H109V94.0001H0V81.8149Z" fill="#EB9D1F"/>
</svg>
